<svg width="33" height="89" viewBox="0 0 33 89" fill="none" xmlns="http://www.w3.org/2000/svg">
<g opacity="0.26">
<mask id="mask0_1_340" style="mask-type:alpha" maskUnits="userSpaceOnUse" x="-9" y="0" width="12" height="11">
<path d="M-2.9284 10.425C-0.0408392 10.425 2.29998 8.09121 2.29998 5.21245C2.29998 2.33368 -0.0408392 0 -2.9284 0C-5.81596 0 -8.1568 2.33368 -8.1568 5.21245C-8.1568 8.09121 -5.81596 10.425 -2.9284 10.425Z" fill="url(#paint0_linear_1_340)"/>
</mask>
<g mask="url(#mask0_1_340)">
<path d="M-2.9284 10.425C-0.0408392 10.425 2.29998 8.09121 2.29998 5.21245C2.29998 2.33368 -0.0408392 0 -2.9284 0C-5.81596 0 -8.1568 2.33368 -8.1568 5.21245C-8.1568 8.09121 -5.81596 10.425 -2.9284 10.425Z" fill="url(#paint1_linear_1_340)"/>
</g>
<mask id="mask1_1_340" style="mask-type:alpha" maskUnits="userSpaceOnUse" x="22" y="0" width="11" height="11">
<path d="M27.3526 10.425C30.2402 10.425 32.581 8.09121 32.581 5.21245C32.581 2.33368 30.2402 0 27.3526 0C24.4651 0 22.1243 2.33368 22.1243 5.21245C22.1243 8.09121 24.4651 10.425 27.3526 10.425Z" fill="url(#paint2_linear_1_340)"/>
</mask>
<g mask="url(#mask1_1_340)">
<path d="M27.3526 10.425C30.2402 10.425 32.581 8.09121 32.581 5.21245C32.581 2.33368 30.2402 0 27.3526 0C24.4651 0 22.1243 2.33368 22.1243 5.21245C22.1243 8.09121 24.4651 10.425 27.3526 10.425Z" fill="url(#paint3_linear_1_340)"/>
</g>
<mask id="mask2_1_340" style="mask-type:alpha" maskUnits="userSpaceOnUse" x="-9" y="26" width="12" height="11">
<path d="M-2.9284 36.5958C-0.0408392 36.5958 2.29998 34.2621 2.29998 31.3833C2.29998 28.5046 -0.0408392 26.1709 -2.9284 26.1709C-5.81596 26.1709 -8.1568 28.5046 -8.1568 31.3833C-8.1568 34.2621 -5.81596 36.5958 -2.9284 36.5958Z" fill="url(#paint4_linear_1_340)"/>
</mask>
<g mask="url(#mask2_1_340)">
<path d="M-2.9284 36.5958C-0.0408392 36.5958 2.29998 34.2621 2.29998 31.3833C2.29998 28.5046 -0.0408392 26.1709 -2.9284 26.1709C-5.81596 26.1709 -8.1568 28.5046 -8.1568 31.3833C-8.1568 34.2621 -5.81596 36.5958 -2.9284 36.5958Z" fill="url(#paint5_linear_1_340)"/>
</g>
<mask id="mask3_1_340" style="mask-type:alpha" maskUnits="userSpaceOnUse" x="22" y="26" width="11" height="11">
<path d="M27.3526 36.5958C30.2402 36.5958 32.581 34.2621 32.581 31.3833C32.581 28.5046 30.2402 26.1709 27.3526 26.1709C24.4651 26.1709 22.1243 28.5046 22.1243 31.3833C22.1243 34.2621 24.4651 36.5958 27.3526 36.5958Z" fill="url(#paint6_linear_1_340)"/>
</mask>
<g mask="url(#mask3_1_340)">
<path d="M27.3526 36.5958C30.2402 36.5958 32.581 34.2621 32.581 31.3833C32.581 28.5046 30.2402 26.1709 27.3526 26.1709C24.4651 26.1709 22.1243 28.5046 22.1243 31.3833C22.1243 34.2621 24.4651 36.5958 27.3526 36.5958Z" fill="url(#paint7_linear_1_340)"/>
</g>
<mask id="mask4_1_340" style="mask-type:alpha" maskUnits="userSpaceOnUse" x="-9" y="52" width="12" height="11">
<path d="M-2.9284 62.7124C-0.0408392 62.7124 2.29998 60.3787 2.29998 57.5C2.29998 54.6212 -0.0408392 52.2875 -2.9284 52.2875C-5.81596 52.2875 -8.1568 54.6212 -8.1568 57.5C-8.1568 60.3787 -5.81596 62.7124 -2.9284 62.7124Z" fill="url(#paint8_linear_1_340)"/>
</mask>
<g mask="url(#mask4_1_340)">
<path d="M-2.9284 62.7124C-0.0408392 62.7124 2.29998 60.3787 2.29998 57.5C2.29998 54.6212 -0.0408392 52.2875 -2.9284 52.2875C-5.81596 52.2875 -8.1568 54.6212 -8.1568 57.5C-8.1568 60.3787 -5.81596 62.7124 -2.9284 62.7124Z" fill="url(#paint9_linear_1_340)"/>
</g>
<mask id="mask5_1_340" style="mask-type:alpha" maskUnits="userSpaceOnUse" x="22" y="52" width="11" height="11">
<path d="M27.3526 62.7124C30.2402 62.7124 32.581 60.3787 32.581 57.5C32.581 54.6212 30.2402 52.2875 27.3526 52.2875C24.4651 52.2875 22.1243 54.6212 22.1243 57.5C22.1243 60.3787 24.4651 62.7124 27.3526 62.7124Z" fill="url(#paint10_linear_1_340)"/>
</mask>
<g mask="url(#mask5_1_340)">
<path d="M27.3526 62.7124C30.2402 62.7124 32.581 60.3787 32.581 57.5C32.581 54.6212 30.2402 52.2875 27.3526 52.2875C24.4651 52.2875 22.1243 54.6212 22.1243 57.5C22.1243 60.3787 24.4651 62.7124 27.3526 62.7124Z" fill="url(#paint11_linear_1_340)"/>
</g>
<mask id="mask6_1_340" style="mask-type:alpha" maskUnits="userSpaceOnUse" x="-9" y="78" width="12" height="11">
<path d="M-2.9284 88.8833C-0.0408392 88.8833 2.29998 86.5496 2.29998 83.6708C2.29998 80.7921 -0.0408392 78.4584 -2.9284 78.4584C-5.81596 78.4584 -8.1568 80.7921 -8.1568 83.6708C-8.1568 86.5496 -5.81596 88.8833 -2.9284 88.8833Z" fill="url(#paint12_linear_1_340)"/>
</mask>
<g mask="url(#mask6_1_340)">
<path d="M-2.9284 88.8833C-0.0408392 88.8833 2.29998 86.5496 2.29998 83.6708C2.29998 80.7921 -0.0408392 78.4584 -2.9284 78.4584C-5.81596 78.4584 -8.1568 80.7921 -8.1568 83.6708C-8.1568 86.5496 -5.81596 88.8833 -2.9284 88.8833Z" fill="url(#paint13_linear_1_340)"/>
</g>
<mask id="mask7_1_340" style="mask-type:alpha" maskUnits="userSpaceOnUse" x="22" y="78" width="11" height="11">
<path d="M27.3526 88.8833C30.2402 88.8833 32.581 86.5496 32.581 83.6708C32.581 80.7921 30.2402 78.4584 27.3526 78.4584C24.4651 78.4584 22.1243 80.7921 22.1243 83.6708C22.1243 86.5496 24.4651 88.8833 27.3526 88.8833Z" fill="url(#paint14_linear_1_340)"/>
</mask>
<g mask="url(#mask7_1_340)">
<path d="M27.3526 88.8833C30.2402 88.8833 32.581 86.5496 32.581 83.6708C32.581 80.7921 30.2402 78.4584 27.3526 78.4584C24.4651 78.4584 22.1243 80.7921 22.1243 83.6708C22.1243 86.5496 24.4651 88.8833 27.3526 88.8833Z" fill="url(#paint15_linear_1_340)"/>
</g>
</g>
<defs>
<linearGradient id="paint0_linear_1_340" x1="46.8393" y1="131.134" x2="-24.5624" y2="-50.67" gradientUnits="userSpaceOnUse">
<stop stop-color="white"/>
<stop offset="1" stop-color="white"/>
</linearGradient>
<linearGradient id="paint1_linear_1_340" x1="46.8393" y1="131.134" x2="-24.5624" y2="-50.67" gradientUnits="userSpaceOnUse">
<stop stop-color="white"/>
<stop offset="1" stop-color="white"/>
</linearGradient>
<linearGradient id="paint2_linear_1_340" x1="77.1203" y1="131.134" x2="5.71871" y2="-50.67" gradientUnits="userSpaceOnUse">
<stop stop-color="white"/>
<stop offset="1" stop-color="white"/>
</linearGradient>
<linearGradient id="paint3_linear_1_340" x1="77.1203" y1="131.134" x2="5.71871" y2="-50.67" gradientUnits="userSpaceOnUse">
<stop stop-color="white"/>
<stop offset="1" stop-color="white"/>
</linearGradient>
<linearGradient id="paint4_linear_1_340" x1="46.8393" y1="157.303" x2="-24.5611" y2="-24.4991" gradientUnits="userSpaceOnUse">
<stop stop-color="white"/>
<stop offset="1" stop-color="white"/>
</linearGradient>
<linearGradient id="paint5_linear_1_340" x1="46.8393" y1="157.303" x2="-24.5611" y2="-24.4991" gradientUnits="userSpaceOnUse">
<stop stop-color="white"/>
<stop offset="1" stop-color="white"/>
</linearGradient>
<linearGradient id="paint6_linear_1_340" x1="77.1203" y1="157.303" x2="5.71993" y2="-24.4991" gradientUnits="userSpaceOnUse">
<stop stop-color="white"/>
<stop offset="1" stop-color="white"/>
</linearGradient>
<linearGradient id="paint7_linear_1_340" x1="77.1203" y1="157.303" x2="5.71993" y2="-24.4991" gradientUnits="userSpaceOnUse">
<stop stop-color="white"/>
<stop offset="1" stop-color="white"/>
</linearGradient>
<linearGradient id="paint8_linear_1_340" x1="46.8393" y1="183.421" x2="-24.5624" y2="1.61743" gradientUnits="userSpaceOnUse">
<stop stop-color="white"/>
<stop offset="1" stop-color="white"/>
</linearGradient>
<linearGradient id="paint9_linear_1_340" x1="46.8393" y1="183.421" x2="-24.5624" y2="1.61743" gradientUnits="userSpaceOnUse">
<stop stop-color="white"/>
<stop offset="1" stop-color="white"/>
</linearGradient>
<linearGradient id="paint10_linear_1_340" x1="77.1203" y1="183.421" x2="5.71871" y2="1.61743" gradientUnits="userSpaceOnUse">
<stop stop-color="white"/>
<stop offset="1" stop-color="white"/>
</linearGradient>
<linearGradient id="paint11_linear_1_340" x1="77.1203" y1="183.421" x2="5.71871" y2="1.61743" gradientUnits="userSpaceOnUse">
<stop stop-color="white"/>
<stop offset="1" stop-color="white"/>
</linearGradient>
<linearGradient id="paint12_linear_1_340" x1="46.8393" y1="209.592" x2="-24.5624" y2="27.7883" gradientUnits="userSpaceOnUse">
<stop stop-color="white"/>
<stop offset="1" stop-color="white"/>
</linearGradient>
<linearGradient id="paint13_linear_1_340" x1="46.8393" y1="209.592" x2="-24.5624" y2="27.7883" gradientUnits="userSpaceOnUse">
<stop stop-color="white"/>
<stop offset="1" stop-color="white"/>
</linearGradient>
<linearGradient id="paint14_linear_1_340" x1="77.1203" y1="209.592" x2="5.71871" y2="27.7883" gradientUnits="userSpaceOnUse">
<stop stop-color="white"/>
<stop offset="1" stop-color="white"/>
</linearGradient>
<linearGradient id="paint15_linear_1_340" x1="77.1203" y1="209.592" x2="5.71871" y2="27.7883" gradientUnits="userSpaceOnUse">
<stop stop-color="white"/>
<stop offset="1" stop-color="white"/>
</linearGradient>
</defs>
</svg>
